<svg id="Capa_1" data-name="Capa 1" xmlns="http://www.w3.org/2000/svg" width="24.85" height="24.86" viewBox="0 0 24.85 24.86"><path d="M684.06,378.72a4.27,4.27,0,0,0,.38.36h0a1.25,1.25,0,0,1,.45,1.41l0,.16a3,3,0,0,0-.1,1.15,1.86,1.86,0,0,0,.8,1.23,1.8,1.8,0,0,0,1.4.26,3.43,3.43,0,0,0,.88-.39l.46-.25a1.06,1.06,0,0,1,1,0l.39.2.52.28a1.74,1.74,0,0,0,.81.19h0a1.79,1.79,0,0,0,1.82-1.83,4.53,4.53,0,0,0-.12-.91c0-.11-.05-.22-.06-.33a1,1,0,0,1,.31-1q.39-.36.72-.72a1.83,1.83,0,0,0-1.1-3.1l-.49-.07-.47-.07a.93.93,0,0,1-.74-.54c-.13-.27-.27-.54-.41-.81l0-.11a1.82,1.82,0,0,0-3.28,0l-.22.44-.24.49a1,1,0,0,1-.68.53l-1,.15a1.82,1.82,0,0,0-1.11,3.12Zm.52-2.17h0a.71.71,0,0,1,.45-.19h.05l.49-.08.69-.12a1.7,1.7,0,0,0,1.22-.94c.15-.27.29-.57.45-.91a.91.91,0,0,1,.85-.59h0a.94.94,0,0,1,.87.6c0,.09.09.18.13.28s.14.26.2.4a2,2,0,0,0,1.75,1.25l.63.08.15,0a.89.89,0,0,1,.74.61.87.87,0,0,1-.21.95L693,378c-.17.17-.34.35-.52.5a2,2,0,0,0-.67,2.16c.05.22.09.46.13.73a.9.9,0,0,1-.37.89.91.91,0,0,1-.53.18,1,1,0,0,1-.43-.11L690,382l-.32-.17a1.85,1.85,0,0,0-1.78,0l-.32.17-.62.32a.91.91,0,0,1-.89-.05,1,1,0,0,1-.41-.91l.05-.29c0-.24.08-.52.12-.79a1.79,1.79,0,0,0-.54-1.65c-.12-.12-.24-.24-.37-.35l-.33-.33A.92.92,0,0,1,684.58,376.55Z" transform="translate(-670.69 -371.78)"/><path d="M695.29,385.21c-.21-.08-.38-.06-.66.29a9.21,9.21,0,0,1-3.29,2.73,10.84,10.84,0,0,1-2,.72,9.2,9.2,0,0,1-3.34.13,8.9,8.9,0,0,1-4.78-2.24,9,9,0,0,1-3-6.23,9.67,9.67,0,0,1,.27-2.91l0-.07a9.25,9.25,0,0,1,3.47-5,.43.43,0,0,0,.18-.56.49.49,0,0,0-.46-.27h-.1a12.85,12.85,0,0,0-4.2,1.34,10.15,10.15,0,0,0-2.3,1.58,12.46,12.46,0,0,0-3.48,14.09,12.46,12.46,0,0,0,18.13,6,10.63,10.63,0,0,0,1.92-1.48l.05-.05c.35-.34.71-.69,1-1.07l0,0a12.35,12.35,0,0,0,2.33-4.31,11.25,11.25,0,0,0,.43-1.93C695.59,385.41,695.44,385.28,695.29,385.21ZM694.08,388a.14.14,0,0,0,0,.06,11.86,11.86,0,0,1-1.82,3.26.44.44,0,0,0-.08.11l0,.06a11.72,11.72,0,0,1-4.75,3.42,11.4,11.4,0,0,1-4.15.78,11.58,11.58,0,0,1-11.14-8.36,12.24,12.24,0,0,1-.45-3.7,9.45,9.45,0,0,1,.31-2.29,11.77,11.77,0,0,1,3.31-5.63l.13-.13a2.26,2.26,0,0,1,.32-.29l.25-.18c.21-.16.43-.33.65-.48a10.47,10.47,0,0,1,2.28-1.23l.13-.05a2.51,2.51,0,0,1,.62-.2l.31-.05-.19.25-.24.32c-.18.22-.34.43-.49.65a10.31,10.31,0,0,0-1,2h0l-.09.29c0,.09-.07.18-.09.27h0c0,.08,0,.16-.08.25h0c0,.07,0,.13-.05.2a9.56,9.56,0,0,0-.37,2.07,9,9,0,0,0,0,1.16,9.91,9.91,0,0,0,5,8.16A9.17,9.17,0,0,0,686,390a9.58,9.58,0,0,0,4.13-.32,7.81,7.81,0,0,0,2.11-.86,11.29,11.29,0,0,0,1.74-1.21l.15-.12,0,.19A.51.51,0,0,1,694.08,388Z" transform="translate(-670.69 -371.78)"/></svg>