<svg xmlns="http://www.w3.org/2000/svg" width="21.6" height="24" viewBox="0 0 21.6 24" fill="currentColor">
    <path id="power" d="M683,383.39a1,1,0,0,1-1.1-.94v-9a1.11,1.11,0,0,1,2.2,0v9A1,1,0,0,1,683,383.39Zm0,13.11a10.7,10.7,0,0,1-10.8-10.58,10.57,10.57,0,0,1,6.48-9.69,1.11,1.11,0,0,1,1.44.56,1.07,1.07,0,0,1-.56,1.42,8.41,8.41,0,0,0-5.16,7.71,8.6,8.6,0,0,0,17.2,0,8.41,8.41,0,0,0-5.16-7.71,1.07,1.07,0,0,1-.56-1.42,1.1,1.1,0,0,1,1.44-.55,10.55,10.55,0,0,1,6.48,9.68A10.7,10.7,0,0,1,683,396.5Z" transform="translate(-672.2 -372.5)"/>
</svg>