<svg id="Capa_1" data-name="Capa 1" xmlns="http://www.w3.org/2000/svg" width="30" height="27.56" viewBox="0 0 30 27.56"><path d="M698,390.89v1.05c-.06,0-.06.07-.07.11a3.17,3.17,0,0,1-2.78,2.47l-5.16.9-7.08,1.25c-2.95.52-5.91,1-8.86,1.56a3.13,3.13,0,0,1-3.75-2.54c-.68-3.79-1.34-7.58-2-11.37a7.31,7.31,0,0,0-.29-1.39v-1.05c.09,0,.06-.11.07-.17a3.16,3.16,0,0,1,2.71-2.41c.71-.11,1.42-.24,2.15-.37,0-.45-.22-.87,0-1.31a1.31,1.31,0,0,1,1-.77c0-.18-.06-.33-.09-.48a3.69,3.69,0,0,1,3-4.38c2.27-.39,4.55-.79,6.82-1.2a3.68,3.68,0,0,1,4.24,2.72c.07.28.12.56.18.85a1.26,1.26,0,0,1,1.2.37c.32.34.3.8.42,1.24l2.16-.38a3.13,3.13,0,0,1,3.69,2.06A15.54,15.54,0,0,1,696,380a.42.42,0,0,1-.35.5.44.44,0,0,1-.5-.35c0-.16-.07-.34-.1-.5-.28,0-.54,0-.8-.05a4.43,4.43,0,0,1-2.12-.91s0-.06,0,0,0,.05,0,.07l2.27,12.95a4.25,4.25,0,0,1,2.46-2c-.17-1-.34-2-.51-2.93l-.78-4.39c-.06-.35.05-.57.32-.62s.48.1.54.43c.44,2.46.86,4.92,1.31,7.38A6.5,6.5,0,0,0,698,390.89Zm-20.85-2.33H682a1.2,1.2,0,0,1,1.31,1.3c0,.67,0,1.33,0,2a1.19,1.19,0,0,1-1.32,1.32h-3.66c-.1,0-.21,0-.31,0l.59,3.33,11.91-2.09L689.34,388a3,3,0,1,1-1-5.79l-.88-5-11.91,2.1Zm-5.53-6.38a4.19,4.19,0,0,1-2.46,2l1.77,10.06a4.09,4.09,0,0,1,2.91.94,1.48,1.48,0,0,0-.05-.67c0-.35.07-.57.33-.62s.48.12.54.47.13.75.2,1.12l.3,1.68,2.49-.44s0-.06,0-.08c-.19-1.11-.39-2.22-.58-3.33,0-.13-.1-.12-.18-.14a1.22,1.22,0,0,1-.93-1.26v-2.05a1.25,1.25,0,0,1,.24-.79.34.34,0,0,0,.07-.32q-.56-3.09-1.09-6.18-.27-1.5-.54-3l-2.53.44c0,.06,0,.09,0,.13q.54,3.12,1.1,6.24.5,2.85,1,5.72c.06.33-.08.56-.35.6s-.46-.12-.52-.46c-.22-1.21-.43-2.43-.65-3.65C672.37,386.44,672,384.35,671.62,382.18Zm16.71-5.07v.14c.29,1.65.59,3.29.87,4.94,0,.17.13.17.24.21a2.84,2.84,0,0,1,2,2.26,2.77,2.77,0,0,1-1,2.75.55.55,0,0,0-.2.59c.26,1.4.5,2.81.75,4.22.13.69.25,1.37.38,2.07l2.53-.45-3-17.17Zm-3.27-2.21c0-.2-.06-.38-.1-.56a.59.59,0,0,0-.77-.51c-2.14.38-4.28.75-6.42,1.14-.95.17-1,.33-.84,1.27l0,.07c1,0,1.27.19,1.62,1.62l5.49-1c0-.44-.22-.85,0-1.28A1.25,1.25,0,0,1,685.06,374.9Zm-9,1.59c0-.22-.08-.39-.11-.56a1.48,1.48,0,0,1,1.25-1.77l6.85-1.21a1.48,1.48,0,0,1,1.74,1.19,2.16,2.16,0,0,0,.14.61l1.27-.23c0-.18-.05-.33-.08-.47a2.74,2.74,0,0,0-3.21-2.39c-2.38.37-4.76.8-7.14,1.25a2.8,2.8,0,0,0-2,3.8Zm14.49,8.7a2.06,2.06,0,1,0-2,2.05A2.06,2.06,0,0,0,690.58,385.19Zm-11,7.11H682c.33,0,.42-.09.42-.42q0-1,0-2c0-.33-.1-.43-.44-.43h-4.62c-.35,0-.46.1-.46.45v1.95c0,.37.1.46.48.46Zm-8.42-12.17a2.32,2.32,0,0,0-2.18,3.14A3.14,3.14,0,0,0,671.2,380.13ZM697,390.54a3.13,3.13,0,0,0-2.18,3.14A2.32,2.32,0,0,0,697,390.54Zm-2.08-11.83a2.31,2.31,0,0,0-3.13-2.18A3.16,3.16,0,0,0,694.9,378.71ZM674.22,397.3a3,3,0,0,0-3.11-2.17A2.32,2.32,0,0,0,674.22,397.3ZM685,376.81l3.89-.68c0-.21-.07-.4-.1-.59a.35.35,0,0,0-.46-.31l-3,.54c-.37.06-.43.16-.37.54C684.9,376.46,684.93,376.61,685,376.81Zm-11.14,2,3.87-.68c0-.22-.06-.41-.09-.59a.34.34,0,0,0-.44-.31l-3.17.56a.33.33,0,0,0-.29.42C673.73,378.36,673.77,378.55,673.82,378.77Z" transform="translate(-668 -370.73)"/><path d="M692.11,378.69s0-.06,0-.07,0,0,0,0Z" transform="translate(-668 -370.73)"/><path d="M683,382.47a1.19,1.19,0,0,1-.76,1.14c-1.23.47-2.46.92-3.7,1.35a1.21,1.21,0,0,1-1.53-.73c-.18-.42-.33-.85-.47-1.28a1.21,1.21,0,0,1,.73-1.55c1.2-.45,2.41-.89,3.62-1.32a1.23,1.23,0,0,1,1.58.73c.17.42.31.85.47,1.28A2.32,2.32,0,0,1,683,382.47Zm-.89-.09a11.57,11.57,0,0,0-.52-1.35.33.33,0,0,0-.42-.12l-3.56,1.3a.36.36,0,0,0-.23.49c.13.39.28.77.42,1.15a.38.38,0,0,0,.54.25l3.51-1.27A.41.41,0,0,0,682.13,382.38Z" transform="translate(-668 -370.73)"/><path d="M679.62,391.31h-1.14c-.3,0-.49-.16-.5-.41a.45.45,0,0,1,.49-.46h2.32a.44.44,0,0,1,.48.44.42.42,0,0,1-.48.43Z" transform="translate(-668 -370.73)"/></svg>