<svg id="Capa_1" data-name="Capa 1" xmlns="http://www.w3.org/2000/svg" width="29.82" height="29.14" viewBox="0 0 29.82 29.14"><path d="M672.07,383.44v-1.26a2.27,2.27,0,0,1-1.76-.72,2.17,2.17,0,0,1-.61-1.47.45.45,0,0,1,.43-.54c.3,0,.47.16.5.49a1.29,1.29,0,0,0,1.38,1.29h12.91a1.28,1.28,0,0,0,1.38-1.29c0-.33.21-.5.5-.49a.46.46,0,0,1,.44.54,2.25,2.25,0,0,1-2.1,2.18h-.28v1.05a.71.71,0,0,0,.38,0l1.27,0a1.76,1.76,0,0,1,1.84,1.39c.25.94.49,1.88.74,2.83a1.62,1.62,0,0,0,1.7,1.32h3.81a2.23,2.23,0,0,1,2.37,1.78h.32a.53.53,0,0,1,.61.58c0,.88,0,1.75,0,2.63,0,.34-.17.48-.52.49h-.3c0,.22,0,.41-.05.59a1.73,1.73,0,0,1-1.67,1.47c-.52,0-1.05,0-1.57,0-.18,0-.26,0-.3.22a3.26,3.26,0,0,1-3.2,2.54,3.21,3.21,0,0,1-3.19-2.56c0-.17-.11-.2-.26-.2h-6.93c-.14,0-.22,0-.27.19a3.27,3.27,0,0,1-6.41-.11l-.05-.08H672c-.41,0-.83,0-1.24,0a1.63,1.63,0,0,1-1.56-1.61c0-.39,0-.77,0-1.17l-.26-.08a1.21,1.21,0,0,1-.87-1.14c0-.32,0-.64,0-1a1.31,1.31,0,0,1,1.11-1.53.58.58,0,0,0,0-.32V385.4a1.82,1.82,0,0,1,2-2Zm1.14,11.82c0-.08,0-.11,0-.15a3.27,3.27,0,0,1,3.15-2.6,3.19,3.19,0,0,1,3.22,2.43c.07.27.16.33.42.33h6.65a.58.58,0,0,0,.32,0,3.3,3.3,0,0,1,5-2.21,3.22,3.22,0,0,1,1.46,2.21l.08,0h1.6a.81.81,0,0,0,.86-1c-1.17-.19-1.75-.73-1.79-1.67a2,2,0,0,1,.33-1.38,1.79,1.79,0,0,1,1.37-.71,1.18,1.18,0,0,0-1.24-.83h-3.93a2.4,2.4,0,0,1-1.18-.23.48.48,0,0,0-.42,0l-2.46.82a5.46,5.46,0,0,1-1.79.38h-9.1a2.6,2.6,0,0,1-2.65-2.67c0-1.08,0-2.17,0-3.26,0-.1,0-.2,0-.28-.66,0-1.3,0-1.95,0a.94.94,0,0,0-1,1.07v4.09a.43.43,0,0,0,0,.27l.11,0a1.22,1.22,0,0,1,1.12,1.33c0,.35,0,.69,0,1a1.24,1.24,0,0,1-.9,1.16c-.11,0-.24,0-.36.08,0,.38,0,.76,0,1.14a.68.68,0,0,0,.64.68C671.6,395.27,672.39,395.26,673.21,395.26Zm6.5-5.54h4.19c0-.12-.08-.21-.12-.3-.29-.67-.57-1.35-.86-2-.14-.34-.06-.61.2-.72s.5,0,.66.36c.35.82.72,1.63,1.06,2.46a.32.32,0,0,0,.41.22,6.51,6.51,0,0,0,1-.28l2.26-.75a4.78,4.78,0,0,1-.46-1.14c-.22-.89-.46-1.77-.69-2.65a.8.8,0,0,0-.93-.71l-4.08.05h-2.69Zm-1-.11v-5.28H674.1c0,1.34-.07,2.65,0,4a1.51,1.51,0,0,0,1.35,1.31C676.57,389.65,677.64,389.61,678.73,389.61Zm-5.65-7.42v1.21l10.82-.15v-1.06Zm19.46,13.64a2.3,2.3,0,1,0-2.3,2.25A2.26,2.26,0,0,0,692.54,395.83Zm-13.8,0a2.3,2.3,0,1,0-4.59,0,2.32,2.32,0,0,0,2.31,2.3A2.29,2.29,0,0,0,678.74,395.79Zm18.16-4.37h-1.07a.71.71,0,0,0-.63.63,3.25,3.25,0,0,0,0,.54.7.7,0,0,0,.63.64c.36,0,.72,0,1.08,0Zm-26.41.24c0-.19,0-.37,0-.55a.32.32,0,0,0-.36-.35h-.75a.3.3,0,0,0-.34.34V392c0,.52.05.57.57.57C670.52,392.54,670.51,392.64,670.49,391.66Z" transform="translate(-668.09 -369.92)"/><path d="M676.43,372.37c0-.39,0-.74.05-1.09a1.63,1.63,0,0,1,1.51-1.34,12.18,12.18,0,0,1,1.48,0,1.61,1.61,0,0,1,1.52,1.55c0,.28,0,.56,0,.88h1.53a1.76,1.76,0,0,1,1.91,1.92v3.59a1.76,1.76,0,0,1-1.83,1.86h-7.74a1.75,1.75,0,0,1-1.83-1.82q0-1.87,0-3.75a1.74,1.74,0,0,1,1.82-1.8Zm.17,6.35h4.34v-5.43H676.6Zm5.3-5.44v5.44l.13,0h.76a.76.76,0,0,0,.73-.74q0-2,0-4a.73.73,0,0,0-.64-.72C682.56,373.26,682.24,373.28,681.9,373.28Zm-6.31,0h-.85a.77.77,0,0,0-.77.78c0,1.3,0,2.61,0,3.92a.76.76,0,0,0,.69.76c.3,0,.61,0,.93,0Zm1.88-1h2.65c0-.25,0-.48,0-.71a.71.71,0,0,0-.76-.72c-.21,0-.42,0-.63,0-1.41-.09-1.3.49-1.28,1.38C677.44,372.26,677.46,372.28,677.47,372.3Z" transform="translate(-668.09 -369.92)"/><path d="M691.8,390.9v.18c0,.34-.19.54-.48.53s-.45-.19-.46-.52a3.38,3.38,0,0,1,0-.45c0-.32.18-.48.46-.48a.47.47,0,0,1,.48.47A2.43,2.43,0,0,1,691.8,390.9Z" transform="translate(-668.09 -369.92)"/><path d="M682.31,391.61c.52,0,.72.13.71.47s-.2.46-.7.46H682a.43.43,0,0,1-.42-.46.43.43,0,0,1,.44-.47Z" transform="translate(-668.09 -369.92)"/><path d="M689.32,390.87c0-.1,0-.2,0-.3a.4.4,0,0,1,.43-.41.43.43,0,0,1,.48.39,4.42,4.42,0,0,1,0,.63.44.44,0,0,1-.45.43.44.44,0,0,1-.47-.44c0-.1,0-.2,0-.3Z" transform="translate(-668.09 -369.92)"/><path d="M690.29,394.19a1.55,1.55,0,1,1-1.58,1.49A1.54,1.54,0,0,1,690.29,394.19Zm.56,1.59a.6.6,0,0,0-.58-.6.61.61,0,1,0,0,1.21A.61.61,0,0,0,690.85,395.78Z" transform="translate(-668.09 -369.92)"/><path d="M674.91,395.73a1.55,1.55,0,1,1,3.09,0,1.55,1.55,0,1,1-3.09,0Zm2.14.06a.59.59,0,0,0-.58-.61.63.63,0,0,0-.63.6.63.63,0,0,0,.62.61A.6.6,0,0,0,677.05,395.79Z" transform="translate(-668.09 -369.92)"/></svg>