<svg xmlns="http://www.w3.org/2000/svg" width="30" height="30" viewBox="0 0 30 30" fill="currentColor">
    <path d="M683,394.28a9.78,9.78,0,1,1,9.78-9.78A9.79,9.79,0,0,1,683,394.28ZM683,376a8.48,8.48,0,1,0,8.48,8.48A8.5,8.5,0,0,0,683,376Zm0-2.61a.65.65,0,0,1-.65-.65v-2.61a.65.65,0,0,1,1.3,0v2.61A.65.65,0,0,1,683,373.41Zm0,26.09a.65.65,0,0,1-.65-.65v-2.61a.65.65,0,1,1,1.3,0v2.61A.65.65,0,0,1,683,399.5ZM677.13,375a.67.67,0,0,1-.57-.33l-1.3-2.26a.65.65,0,0,1,1.13-.65L677.7,374a.65.65,0,0,1-.24.89A.68.68,0,0,1,677.13,375Zm13,22.59a.65.65,0,0,1-.56-.33L688.3,395a.65.65,0,0,1,1.13-.65l1.31,2.26a.66.66,0,0,1-.57,1Zm-17.34-18.3a.61.61,0,0,1-.32-.08l-2.26-1.31a.65.65,0,0,1,.65-1.13l2.26,1.31a.65.65,0,0,1-.33,1.21Zm22.6,13.05a.63.63,0,0,1-.33-.09l-2.26-1.31a.65.65,0,0,1,.65-1.13l2.26,1.31a.65.65,0,0,1-.32,1.22Zm-24.17-7.18h-2.61a.65.65,0,0,1,0-1.3h2.61a.65.65,0,0,1,0,1.3Zm26.09,0h-2.61a.65.65,0,0,1,0-1.3h2.61a.65.65,0,0,1,0,1.3Zm-26.78,7.18a.65.65,0,0,1-.32-1.22l2.26-1.31a.65.65,0,1,1,.65,1.13l-2.26,1.31A.63.63,0,0,1,670.57,392.33Zm22.6-13.05a.65.65,0,0,1-.33-1.21l2.26-1.31a.65.65,0,1,1,.65,1.13l-2.26,1.31A.61.61,0,0,1,693.17,379.28Zm-17.34,18.3a.66.66,0,0,1-.57-1l1.31-2.26a.65.65,0,0,1,1.13.65l-1.31,2.26A.65.65,0,0,1,675.83,397.58Zm13-22.59a.68.68,0,0,1-.33-.09.65.65,0,0,1-.24-.89l1.31-2.26a.65.65,0,0,1,1.13.65l-1.31,2.26A.65.65,0,0,1,688.87,375Z" transform="translate(-668 -369.5)"/>
</svg>