<svg id="Capa_1" data-name="Capa 1" xmlns="http://www.w3.org/2000/svg" width="25.71" height="30" viewBox="0 0 25.71 30"><g id="Guía-de-estilo"><g id="Iconos"><path id="cool" d="M683,399.5a.64.64,0,0,1-.63-.65V391a.63.63,0,1,1,1.26,0v7.83A.64.64,0,0,1,683,399.5Zm-5.48-17.61a.62.62,0,0,1-.32-.09l-6.57-3.91a.65.65,0,0,1-.23-.89.62.62,0,0,1,.86-.24l6.26,3.73,4.85-2.89v-7.45a.63.63,0,1,1,1.26,0V378a.65.65,0,0,1-.31.56l-5.48,3.26A.62.62,0,0,1,677.52,381.89Zm5.48-8.48a.55.55,0,0,1-.28-.07l-2.53-1.3a.67.67,0,0,1-.29-.88.63.63,0,0,1,.85-.29L683,372l2.25-1.16a.62.62,0,0,1,.85.3.66.66,0,0,1-.29.87l-2.53,1.31A.67.67,0,0,1,683,373.41Zm0,2.61a.55.55,0,0,1-.28-.07l-2.53-1.3a.67.67,0,0,1-.29-.88.63.63,0,0,1,.85-.29l2.25,1.16,2.25-1.16a.63.63,0,0,1,.85.29.67.67,0,0,1-.29.88l-2.53,1.3A.55.55,0,0,1,683,376Zm2.53,22.18a.72.72,0,0,1-.28-.07L683,397l-2.25,1.16a.62.62,0,0,1-.85-.3.66.66,0,0,1,.29-.87l2.53-1.31a.61.61,0,0,1,.56,0l2.53,1.31a.66.66,0,0,1,.29.87A.64.64,0,0,1,685.53,398.2Zm0-2.61a.72.72,0,0,1-.28-.07L683,394.36l-2.25,1.16a.63.63,0,0,1-.85-.29.67.67,0,0,1,.29-.88l2.53-1.3a.56.56,0,0,1,.56,0l2.53,1.3a.67.67,0,0,1,.29.88A.63.63,0,0,1,685.53,395.59Zm9.53-3.26a.62.62,0,0,1-.32-.09l-6.58-3.91a.68.68,0,0,1-.23-.9.63.63,0,0,1,.87-.23l6.57,3.91a.66.66,0,0,1,.23.89A.62.62,0,0,1,695.06,392.33Zm0,0a.62.62,0,0,1-.32-.09l-6.58-3.91a.68.68,0,0,1-.31-.57v-6.52a.68.68,0,0,1,.31-.57l6.58-3.91a.62.62,0,0,1,.86.24.65.65,0,0,1-.23.89l-6.26,3.73v5.77l6.26,3.72a.66.66,0,0,1,.23.89A.62.62,0,0,1,695.06,392.33Zm-24.28-11.44a.62.62,0,0,1-.53-.29.67.67,0,0,1,.18-.91l2.09-1.42.15-2.59a.63.63,0,0,1,.67-.61.65.65,0,0,1,.6.69l-.17,2.91a.68.68,0,0,1-.29.51l-2.36,1.6A.6.6,0,0,1,670.78,380.89Zm2.19,1.3a.62.62,0,0,1-.53-.29.66.66,0,0,1,.18-.9l2.09-1.43.16-2.59a.62.62,0,0,1,.67-.61.64.64,0,0,1,.59.69L676,380a.66.66,0,0,1-.28.51l-2.36,1.61A.64.64,0,0,1,673,382.19Zm19.72,11.74h0a.65.65,0,0,1-.6-.69l.17-2.91a.68.68,0,0,1,.29-.51l2.36-1.6a.61.61,0,0,1,.87.18.68.68,0,0,1-.18.91l-2.09,1.42-.15,2.59A.64.64,0,0,1,692.69,393.93Zm-2.19-1.3h0a.65.65,0,0,1-.59-.69L690,389a.66.66,0,0,1,.28-.51l2.36-1.61a.63.63,0,0,1,.88.19.66.66,0,0,1-.18.9l-2.09,1.43-.16,2.59A.64.64,0,0,1,690.5,392.63ZM683,399.5a.64.64,0,0,1-.63-.65V391.4l-4.85-2.89-6.26,3.73a.62.62,0,0,1-.86-.24.65.65,0,0,1,.23-.89l6.57-3.91a.61.61,0,0,1,.64,0l5.48,3.26a.65.65,0,0,1,.31.56v7.83A.64.64,0,0,1,683,399.5Zm-9.69-5.57a.65.65,0,0,1-.64-.61l-.15-2.59-2.09-1.42a.67.67,0,0,1-.18-.91.61.61,0,0,1,.87-.18l2.36,1.61a.64.64,0,0,1,.29.5l.17,2.91a.65.65,0,0,1-.6.69Zm2.19-1.3a.64.64,0,0,1-.63-.61l-.16-2.59L672.62,388a.66.66,0,0,1-.18-.9.62.62,0,0,1,.88-.19l2.36,1.61a.66.66,0,0,1,.28.51l.17,2.91a.64.64,0,0,1-.59.69Zm19.72-11.74a.6.6,0,0,1-.34-.11l-2.36-1.61a.64.64,0,0,1-.29-.5l-.17-2.91a.65.65,0,0,1,.6-.69.63.63,0,0,1,.67.61l.15,2.58,2.09,1.43a.66.66,0,0,1,.18.9A.61.61,0,0,1,695.22,380.89Zm-2.19,1.3a.64.64,0,0,1-.35-.1l-2.36-1.61A.66.66,0,0,1,690,380l-.17-2.91a.64.64,0,0,1,.59-.69.62.62,0,0,1,.67.61l.16,2.59,2.09,1.43a.66.66,0,0,1,.18.9A.62.62,0,0,1,693,382.19Zm-4.55-.3a.62.62,0,0,1-.32-.09l-5.48-3.26a.67.67,0,0,1-.23-.89.64.64,0,0,1,.87-.24l5.16,3.08,6.26-3.73a.62.62,0,0,1,.86.24.65.65,0,0,1-.23.89l-6.57,3.91A.62.62,0,0,1,688.48,381.89ZM683,391.67a.63.63,0,0,1-.55-.32.67.67,0,0,1,.23-.89l5.48-3.26a.63.63,0,0,1,.87.23.68.68,0,0,1-.23.9l-5.48,3.26A.61.61,0,0,1,683,391.67Zm-5.48-3.26a.64.64,0,0,1-.63-.65v-6.52a.63.63,0,1,1,1.26,0v6.52A.64.64,0,0,1,677.52,388.41Zm5.48-.65a.64.64,0,0,1-.63-.65v-5.22a.63.63,0,1,1,1.26,0v5.22A.64.64,0,0,1,683,387.76Zm2.19-1.3a.59.59,0,0,1-.31-.09l-4.39-2.61a.66.66,0,0,1-.23-.89.62.62,0,0,1,.86-.24l4.39,2.61a.67.67,0,0,1,.23.89A.64.64,0,0,1,685.19,386.46Zm-4.38,0a.64.64,0,0,1-.55-.33.66.66,0,0,1,.23-.89l4.39-2.61a.62.62,0,0,1,.86.24.66.66,0,0,1-.23.89l-4.39,2.61A.59.59,0,0,1,680.81,386.46Z" transform="translate(-670.14 -369.5)"/></g></g></svg>