<svg id="Capa_1" data-name="Capa 1" xmlns="http://www.w3.org/2000/svg" width="30.18" height="21.89" viewBox="0 0 30.18 21.89"><path d="M698.05,379.3a2.73,2.73,0,0,0-2.7-2.31h0a2.72,2.72,0,0,0-2.7,2.78c0,1.32,0,2.63,0,4v1.69h-.81v-.52c0-.54,0-1.08,0-1.61a1.88,1.88,0,0,0-1.87-1.89c-1.41,0-2.9,0-4.44,0a1.83,1.83,0,0,0-1.83,1.61,9.23,9.23,0,0,0,0,1.48c0,.28,0,.55,0,.82,0,0,0,.08,0,.11h-1.3v-.48c0-.53,0-1.05,0-1.57a1.91,1.91,0,0,0-2-2h-4.23a1.91,1.91,0,0,0-2,2v2.07h-.81v-5.58a3.23,3.23,0,0,0-.07-.75,2.72,2.72,0,1,0-3.52,3.17c.14,0,.16.06.15.22,0,2.29,0,4.57,0,6.86a3.53,3.53,0,0,0,3.69,3.67h18.82a3.62,3.62,0,0,0,1.65-.34,3.5,3.5,0,0,0,2-3.34q0-3.42,0-6.84c0-.16,0-.19.16-.24A2.7,2.7,0,0,0,698.05,379.3Zm-22.82,5.6c0-.54,0-1.11,0-1.66a.8.8,0,0,1,.84-.78h4.33a.82.82,0,0,1,.84.87v2.09h-6C675.23,385.25,675.23,385.07,675.23,384.9Zm14.69-2.44a.8.8,0,0,1,.82.83c0,.53,0,1.07,0,1.61v.53h-6v-.56c0-.58,0-1.18,0-1.76a.79.79,0,0,1,.8-.65ZM695,384.1c0,1.78,0,3.57,0,5.36a2.4,2.4,0,0,1-2,2.42,3.29,3.29,0,0,1-.65,0H673.55a2.44,2.44,0,0,1-2.54-2.09,2.26,2.26,0,0,1,0-.53v-7.22c0-.55-.09-.67-.62-.77a1.63,1.63,0,0,1,.25-3.24h.1a1.6,1.6,0,0,1,1.54,1.66v2c0,2.15,0,4.36,0,6.54a1.71,1.71,0,0,0,.48,1.25,1.77,1.77,0,0,0,1.25.5c5.37,0,11.73,0,18.12,0a1.63,1.63,0,0,0,1.7-1.74l0-3.5c0-1.69,0-3.37,0-5.06a1.63,1.63,0,0,1,3.2-.43,1.57,1.57,0,0,1-.17,1.27,1.73,1.73,0,0,1-1.16.77c-.49.09-.6.23-.6.72Zm-2.37,4.2a.59.59,0,0,1-.67.63H674a.57.57,0,0,1-.63-.61c0-.45,0-.9,0-1.37v-.4h19.3V387C692.64,387.42,692.64,387.86,692.63,388.3Z" transform="translate(-667.9 -373.56)"/><path d="M670.64,376.65a.5.5,0,0,0,.41,0,.62.62,0,0,0,.35-.36l0-.07a2.87,2.87,0,0,1,2.61-1.61h17.88a2.87,2.87,0,0,1,2.6,1.59.11.11,0,0,1,0,.07.83.83,0,0,1,.07.13.56.56,0,0,0,.46.28.54.54,0,0,0,.26-.07.51.51,0,0,0,.24-.7,2.1,2.1,0,0,0-.15-.3,4,4,0,0,0-3.64-2.09H674.24a4.21,4.21,0,0,0-1.79.35,4,4,0,0,0-2,2A.51.51,0,0,0,670.64,376.65Z" transform="translate(-667.9 -373.56)"/><path d="M692.26,393.3a.45.45,0,0,0-.38.05.75.75,0,0,0-.28.5c0,.14-.05.28-.07.42l0,.07h-.72v0l-.09-.53a.52.52,0,0,0-.6-.49.54.54,0,0,0-.37.2.58.58,0,0,0-.09.44l.12.79a.79.79,0,0,0,.79.72h.61l.63,0a.75.75,0,0,0,.76-.66c0-.13.05-.26.07-.4s0-.24.06-.36A.55.55,0,0,0,692.26,393.3Z" transform="translate(-667.9 -373.56)"/><path d="M676,393.29c-.34-.06-.56.15-.63.51l-.08.54h-.73l-.1-.57a.54.54,0,1,0-1.06.17V394c0,.24.07.49.11.73a.8.8,0,0,0,.8.71h1.21a.78.78,0,0,0,.78-.68c0-.16.06-.33.09-.49s0-.2,0-.3a.59.59,0,0,0-.09-.46A.53.53,0,0,0,676,393.29Z" transform="translate(-667.9 -373.56)"/></svg>