<svg id="Capa_1" data-name="Capa 1" xmlns="http://www.w3.org/2000/svg" width="30" height="23.07" viewBox="0 0 30 23.07" fill="currentColor">
    <path d="M683,389.14H668.84c-.57,0-.85-.2-.84-.59s.29-.57.84-.57h28.45c.44,0,.72.24.71.6s-.27.55-.7.55H683Z" transform="translate(-668 -372.99)"/><path d="M683,392.6H672.32c-.58,0-.86-.19-.86-.58s.29-.58.86-.58h21.36c.57,0,.86.2.86.58s-.28.58-.86.58Z" transform="translate(-668 -372.99)"/><path d="M689.91,385.37c0,.58-.15.86-.53.89s-.6-.26-.62-.86a5.77,5.77,0,0,0-11.37-1.06,6.16,6.16,0,0,0-.15,1.21c0,.45-.24.71-.59.71s-.57-.28-.56-.73a6.91,6.91,0,0,1,13.82-.16Z" transform="translate(-668 -372.99)"/><path d="M683,396.07h-7.26a1.81,1.81,0,0,1-.4,0,.57.57,0,0,1,.08-1.11h15.13a.57.57,0,0,1,.05,1.13,2.3,2.3,0,0,1-.37,0Z" transform="translate(-668 -372.99)"/><path d="M685.17,377.56a.59.59,0,0,1-.6-.73c.35-1.16.72-2.31,1.09-3.46a.57.57,0,0,1,1.08.35c-.34,1.15-.7,2.29-1.07,3.44A.54.54,0,0,1,685.17,377.56Z" transform="translate(-668 -372.99)"/><path d="M680.36,377.35a.58.58,0,0,1-.45.56.57.57,0,0,1-.69-.4l-.68-2.18c-.13-.41-.27-.81-.38-1.22a.57.57,0,0,1,.35-.71.55.55,0,0,1,.73.35c.38,1.16.73,2.31,1.1,3.47C680.35,377.26,680.35,377.3,680.36,377.35Z" transform="translate(-668 -372.99)"/><path d="M692.46,377.26a.54.54,0,0,1,.53.36.53.53,0,0,1-.17.66l-1.11.84-1.58,1.2c-.38.28-.7.26-.92,0s-.15-.61.21-.89l2.59-1.95A.76.76,0,0,1,692.46,377.26Z" transform="translate(-668 -372.99)"/><path d="M672.94,378.23a.63.63,0,0,1,.34.17l2.64,2a.58.58,0,1,1-.69.92l-2.67-2a.57.57,0,0,1-.24-.68C672.4,378.37,672.59,378.25,672.94,378.23Z" transform="translate(-668 -372.99)"/><path d="M672.63,385.68H671c-.39,0-.66-.23-.66-.57a.58.58,0,0,1,.64-.58h3.35a.57.57,0,0,1,.62.57.58.58,0,0,1-.64.58Z" transform="translate(-668 -372.99)"/><path d="M693.36,385.68h-1.59c-.43,0-.68-.22-.69-.57s.26-.58.71-.58H695c.45,0,.73.21.74.57s-.28.58-.72.58Z" transform="translate(-668 -372.99)"/>
</svg>