<svg id="Capa_1" data-name="Capa 1" xmlns="http://www.w3.org/2000/svg" width="40" height="39.99" viewBox="0 0 40 39.99"><path d="M702.63,384.24a20,20,0,1,1-19.87-20A20,20,0,0,1,702.63,384.24Zm-7.94,11.87L685,369.44H677.6a1.13,1.13,0,0,0,0,.71,5.23,5.23,0,0,0,1,.21c1.7.15,2.28,1.08,1.75,2.68-.68,2.09-1.47,4.13-2.23,6.19-1.7,4.62-3.38,9.27-5.07,13.9-.35,1-.69,2-1.05,3,.72,0,1.35,0,2,0,.33,0,.46-.13.57-.45.92-2.6,1.87-5.2,2.81-7.78h10.25c1,2.75,2,5.46,3,8.2Z" transform="translate(-662.63 -364.2)" fill="#1d374d"/><path d="M694.69,396.11h-4.07c-1-2.74-2-5.45-3-8.2H677.41c-.94,2.58-1.89,5.18-2.81,7.78-.11.32-.24.45-.57.45-.62,0-1.25,0-2,0,.36-1,.7-2,1.05-3,1.69-4.63,3.37-9.28,5.07-13.9.76-2.06,1.55-4.1,2.23-6.19.53-1.6,0-2.53-1.75-2.68a5.23,5.23,0,0,1-1-.21,1.13,1.13,0,0,1,0-.71H685Zm-12.2-21.61h-.18L678.09,386H687Z" transform="translate(-662.63 -364.2)" fill="#fff"/><path d="M682.49,374.5,687,386h-8.88l4.22-11.52Z" transform="translate(-662.63 -364.2)" fill="#1d374d"/></svg>